<svg xmlns="http://www.w3.org/2000/svg" width="300" height="300"><defs><clipPath id="a"><path d="M2 98h8v8H2zM2 106h8v8H2zM2 122h8v8H2zM2 130h8v8H2zM2 154h8v8H2zM2 162h8v8H2zM2 170h8v8H2zM2 178h8v8H2zM2 194h8v8H2zM2 202h8v8H2zM10 66h8v8h-8zM10 74h8v8h-8zM10 82h8v8h-8zM10 98h8v8h-8zM10 114h8v8h-8zM10 138h8v8h-8zM10 170h8v8h-8zM10 186h8v8h-8zM10 194h8v8h-8zM10 226h8v8h-8zM18 66h8v8h-8zM18 130h8v8h-8zM18 154h8v8h-8zM18 162h8v8h-8zM18 202h8v8h-8zM18 210h8v8h-8zM26 74h8v8h-8zM26 82h8v8h-8zM26 90h8v8h-8zM26 114h8v8h-8zM26 122h8v8h-8zM26 130h8v8h-8zM26 146h8v8h-8zM26 154h8v8h-8zM26 162h8v8h-8zM26 194h8v8h-8zM26 202h8v8h-8zM26 210h8v8h-8zM34 74h8v8h-8zM34 114h8v8h-8zM34 122h8v8h-8zM34 138h8v8h-8zM34 146h8v8h-8zM34 154h8v8h-8zM34 194h8v8h-8zM34 202h8v8h-8zM34 218h8v8h-8zM42 90h8v8h-8zM42 106h8v8h-8zM42 114h8v8h-8zM42 138h8v8h-8zM42 146h8v8h-8zM42 162h8v8h-8zM42 178h8v8h-8zM42 194h8v8h-8zM42 202h8v8h-8zM50 66h8v8h-8zM50 82h8v8h-8zM50 98h8v8h-8zM50 114h8v8h-8zM50 130h8v8h-8zM50 146h8v8h-8zM50 162h8v8h-8zM50 178h8v8h-8zM50 194h8v8h-8zM50 210h8v8h-8zM50 226h8v8h-8zM58 74h8v8h-8zM58 90h8v8h-8zM58 114h8v8h-8zM58 122h8v8h-8zM58 130h8v8h-8zM58 138h8v8h-8zM58 178h8v8h-8zM58 218h8v8h-8zM58 226h8v8h-8zM66 10h8v8h-8zM66 18h8v8h-8zM66 26h8v8h-8zM66 42h8v8h-8zM66 50h8v8h-8zM66 114h8v8h-8zM66 122h8v8h-8zM66 154h8v8h-8zM66 162h8v8h-8zM66 170h8v8h-8zM66 218h8v8h-8zM66 274h8v8h-8zM66 282h8v8h-8zM74 2h8v8h-8zM74 26h8v8h-8zM74 34h8v8h-8zM74 66h8v8h-8zM74 74h8v8h-8zM74 90h8v8h-8zM74 98h8v8h-8zM74 106h8v8h-8zM74 122h8v8h-8zM74 146h8v8h-8zM74 154h8v8h-8zM74 162h8v8h-8zM74 178h8v8h-8zM74 186h8v8h-8zM74 202h8v8h-8zM74 210h8v8h-8zM74 234h8v8h-8zM74 282h8v8h-8zM82 2h8v8h-8zM82 10h8v8h-8zM82 26h8v8h-8zM82 50h8v8h-8zM82 58h8v8h-8zM82 66h8v8h-8zM82 74h8v8h-8zM82 106h8v8h-8zM82 138h8v8h-8zM82 146h8v8h-8zM82 162h8v8h-8zM82 170h8v8h-8zM82 186h8v8h-8zM82 194h8v8h-8zM82 202h8v8h-8zM82 234h8v8h-8zM82 258h8v8h-8zM82 274h8v8h-8zM90 18h8v8h-8zM90 26h8v8h-8zM90 34h8v8h-8zM90 42h8v8h-8zM90 58h8v8h-8zM90 74h8v8h-8zM90 90h8v8h-8zM90 98h8v8h-8zM90 114h8v8h-8zM90 122h8v8h-8zM90 130h8v8h-8zM90 146h8v8h-8zM90 154h8v8h-8zM90 162h8v8h-8zM90 186h8v8h-8zM90 194h8v8h-8zM90 202h8v8h-8zM90 210h8v8h-8zM90 226h8v8h-8zM90 250h8v8h-8zM90 258h8v8h-8zM90 274h8v8h-8zM90 282h8v8h-8zM90 290h8v8h-8zM98 2h8v8h-8zM98 10h8v8h-8zM98 18h8v8h-8zM98 34h8v8h-8zM98 50h8v8h-8zM98 58h8v8h-8zM98 66h8v8h-8zM98 74h8v8h-8zM98 98h8v8h-8zM98 106h8v8h-8zM98 154h8v8h-8zM98 186h8v8h-8zM98 202h8v8h-8zM98 210h8v8h-8zM98 234h8v8h-8zM98 242h8v8h-8zM98 250h8v8h-8zM98 258h8v8h-8zM98 274h8v8h-8zM98 282h8v8h-8zM106 10h8v8h-8zM106 34h8v8h-8zM106 58h8v8h-8zM106 74h8v8h-8zM106 122h8v8h-8zM106 138h8v8h-8zM106 146h8v8h-8zM106 154h8v8h-8zM106 162h8v8h-8zM106 170h8v8h-8zM106 194h8v8h-8zM106 202h8v8h-8zM106 210h8v8h-8zM106 218h8v8h-8zM106 242h8v8h-8zM106 250h8v8h-8zM106 258h8v8h-8zM106 274h8v8h-8zM106 290h8v8h-8zM114 2h8v8h-8zM114 42h8v8h-8zM114 50h8v8h-8zM114 58h8v8h-8zM114 74h8v8h-8zM114 90h8v8h-8zM114 98h8v8h-8zM114 114h8v8h-8zM114 146h8v8h-8zM114 154h8v8h-8zM114 162h8v8h-8zM114 170h8v8h-8zM114 210h8v8h-8zM114 226h8v8h-8zM114 234h8v8h-8zM114 242h8v8h-8zM114 274h8v8h-8zM114 282h8v8h-8zM122 18h8v8h-8zM122 26h8v8h-8zM122 42h8v8h-8zM122 74h8v8h-8zM122 82h8v8h-8zM122 106h8v8h-8zM122 122h8v8h-8zM122 138h8v8h-8zM122 154h8v8h-8zM122 162h8v8h-8zM122 194h8v8h-8zM122 210h8v8h-8zM122 226h8v8h-8zM122 290h8v8h-8zM130 2h8v8h-8zM130 10h8v8h-8zM130 26h8v8h-8zM130 50h8v8h-8zM130 66h8v8h-8zM130 98h8v8h-8zM130 106h8v8h-8zM130 114h8v8h-8zM130 122h8v8h-8zM130 130h8v8h-8zM130 138h8v8h-8zM130 154h8v8h-8zM130 162h8v8h-8zM130 178h8v8h-8zM130 186h8v8h-8zM130 202h8v8h-8zM130 218h8v8h-8zM130 266h8v8h-8zM130 274h8v8h-8zM130 282h8v8h-8zM138 10h8v8h-8zM138 18h8v8h-8zM138 26h8v8h-8zM138 34h8v8h-8zM138 58h8v8h-8zM138 106h8v8h-8zM138 154h8v8h-8zM138 162h8v8h-8zM138 170h8v8h-8zM138 178h8v8h-8zM138 194h8v8h-8zM138 202h8v8h-8zM138 210h8v8h-8zM138 218h8v8h-8zM138 242h8v8h-8zM138 250h8v8h-8zM138 274h8v8h-8zM138 290h8v8h-8zM146 18h8v8h-8zM146 34h8v8h-8zM146 50h8v8h-8zM146 58h8v8h-8zM146 66h8v8h-8zM146 74h8v8h-8zM146 82h8v8h-8zM146 106h8v8h-8zM146 114h8v8h-8zM146 130h8v8h-8zM146 138h8v8h-8zM146 146h8v8h-8zM146 154h8v8h-8zM146 178h8v8h-8zM146 186h8v8h-8zM146 194h8v8h-8zM146 210h8v8h-8zM146 218h8v8h-8zM146 226h8v8h-8zM146 242h8v8h-8zM146 250h8v8h-8zM146 266h8v8h-8zM146 282h8v8h-8zM146 290h8v8h-8zM154 2h8v8h-8zM154 34h8v8h-8zM154 42h8v8h-8zM154 66h8v8h-8zM154 82h8v8h-8zM154 106h8v8h-8zM154 114h8v8h-8zM154 130h8v8h-8zM154 154h8v8h-8zM154 194h8v8h-8zM154 210h8v8h-8zM154 218h8v8h-8zM154 226h8v8h-8zM154 234h8v8h-8zM154 250h8v8h-8zM154 258h8v8h-8zM154 266h8v8h-8zM154 290h8v8h-8zM162 2h8v8h-8zM162 18h8v8h-8zM162 26h8v8h-8zM162 42h8v8h-8zM162 50h8v8h-8zM162 58h8v8h-8zM162 66h8v8h-8zM162 74h8v8h-8zM162 82h8v8h-8zM162 90h8v8h-8zM162 114h8v8h-8zM162 146h8v8h-8zM162 162h8v8h-8zM162 170h8v8h-8zM162 186h8v8h-8zM162 210h8v8h-8zM162 218h8v8h-8zM162 226h8v8h-8zM162 258h8v8h-8zM162 282h8v8h-8zM170 2h8v8h-8zM170 10h8v8h-8zM170 18h8v8h-8zM170 66h8v8h-8zM170 74h8v8h-8zM170 82h8v8h-8zM170 98h8v8h-8zM170 114h8v8h-8zM170 122h8v8h-8zM170 130h8v8h-8zM170 138h8v8h-8zM170 146h8v8h-8zM170 170h8v8h-8zM170 186h8v8h-8zM170 210h8v8h-8zM170 250h8v8h-8zM170 266h8v8h-8zM170 282h8v8h-8zM178 2h8v8h-8zM178 34h8v8h-8zM178 42h8v8h-8zM178 50h8v8h-8zM178 66h8v8h-8zM178 90h8v8h-8zM178 98h8v8h-8zM178 114h8v8h-8zM178 122h8v8h-8zM178 138h8v8h-8zM178 154h8v8h-8zM178 162h8v8h-8zM178 186h8v8h-8zM178 194h8v8h-8zM178 210h8v8h-8zM178 234h8v8h-8zM178 242h8v8h-8zM178 258h8v8h-8zM178 266h8v8h-8zM178 274h8v8h-8zM178 282h8v8h-8zM186 2h8v8h-8zM186 34h8v8h-8zM186 42h8v8h-8zM186 58h8v8h-8zM186 74h8v8h-8zM186 82h8v8h-8zM186 98h8v8h-8zM186 106h8v8h-8zM186 114h8v8h-8zM186 130h8v8h-8zM186 138h8v8h-8zM186 146h8v8h-8zM186 154h8v8h-8zM186 162h8v8h-8zM186 178h8v8h-8zM186 202h8v8h-8zM186 218h8v8h-8zM186 226h8v8h-8zM186 266h8v8h-8zM186 274h8v8h-8zM194 10h8v8h-8zM194 26h8v8h-8zM194 34h8v8h-8zM194 50h8v8h-8zM194 58h8v8h-8zM194 66h8v8h-8zM194 82h8v8h-8zM194 98h8v8h-8zM194 114h8v8h-8zM194 122h8v8h-8zM194 130h8v8h-8zM194 138h8v8h-8zM194 146h8v8h-8zM194 154h8v8h-8zM194 162h8v8h-8zM194 178h8v8h-8zM194 194h8v8h-8zM194 202h8v8h-8zM194 226h8v8h-8zM194 242h8v8h-8zM194 250h8v8h-8zM194 258h8v8h-8zM194 266h8v8h-8zM194 274h8v8h-8zM194 282h8v8h-8zM194 290h8v8h-8zM202 10h8v8h-8zM202 26h8v8h-8zM202 42h8v8h-8zM202 82h8v8h-8zM202 98h8v8h-8zM202 122h8v8h-8zM202 138h8v8h-8zM202 146h8v8h-8zM202 154h8v8h-8zM202 162h8v8h-8zM202 170h8v8h-8zM202 178h8v8h-8zM202 218h8v8h-8zM202 242h8v8h-8zM202 258h8v8h-8zM202 266h8v8h-8zM202 282h8v8h-8zM202 290h8v8h-8zM210 10h8v8h-8zM210 18h8v8h-8zM210 34h8v8h-8zM210 42h8v8h-8zM210 50h8v8h-8zM210 66h8v8h-8zM210 74h8v8h-8zM210 82h8v8h-8zM210 90h8v8h-8zM210 106h8v8h-8zM210 122h8v8h-8zM210 130h8v8h-8zM210 138h8v8h-8zM210 146h8v8h-8zM210 154h8v8h-8zM210 170h8v8h-8zM210 194h8v8h-8zM210 202h8v8h-8zM210 226h8v8h-8zM210 250h8v8h-8zM210 274h8v8h-8zM218 2h8v8h-8zM218 42h8v8h-8zM218 66h8v8h-8zM218 74h8v8h-8zM218 90h8v8h-8zM218 98h8v8h-8zM218 122h8v8h-8zM218 138h8v8h-8zM218 154h8v8h-8zM218 170h8v8h-8zM218 178h8v8h-8zM218 186h8v8h-8zM218 194h8v8h-8zM218 210h8v8h-8zM218 226h8v8h-8zM218 234h8v8h-8zM218 250h8v8h-8zM218 266h8v8h-8zM218 290h8v8h-8zM226 26h8v8h-8zM226 34h8v8h-8zM226 50h8v8h-8zM226 58h8v8h-8zM226 66h8v8h-8zM226 74h8v8h-8zM226 82h8v8h-8zM226 98h8v8h-8zM226 106h8v8h-8zM226 170h8v8h-8zM226 178h8v8h-8zM226 186h8v8h-8zM226 194h8v8h-8zM226 202h8v8h-8zM226 226h8v8h-8zM226 234h8v8h-8zM226 242h8v8h-8zM226 250h8v8h-8zM226 258h8v8h-8zM226 266h8v8h-8zM226 274h8v8h-8zM226 282h8v8h-8zM234 66h8v8h-8zM234 90h8v8h-8zM234 114h8v8h-8zM234 130h8v8h-8zM234 138h8v8h-8zM234 146h8v8h-8zM234 162h8v8h-8zM234 178h8v8h-8zM234 186h8v8h-8zM234 194h8v8h-8zM234 202h8v8h-8zM234 210h8v8h-8zM234 226h8v8h-8zM234 258h8v8h-8zM234 266h8v8h-8zM234 274h8v8h-8zM234 282h8v8h-8zM234 290h8v8h-8zM242 74h8v8h-8zM242 82h8v8h-8zM242 98h8v8h-8zM242 122h8v8h-8zM242 130h8v8h-8zM242 146h8v8h-8zM242 162h8v8h-8zM242 170h8v8h-8zM242 194h8v8h-8zM242 210h8v8h-8zM242 226h8v8h-8zM242 242h8v8h-8zM242 258h8v8h-8zM242 266h8v8h-8zM242 282h8v8h-8zM242 290h8v8h-8zM250 66h8v8h-8zM250 74h8v8h-8zM250 82h8v8h-8zM250 98h8v8h-8zM250 106h8v8h-8zM250 122h8v8h-8zM250 138h8v8h-8zM250 178h8v8h-8zM250 186h8v8h-8zM250 218h8v8h-8zM250 226h8v8h-8zM250 258h8v8h-8zM250 266h8v8h-8zM258 74h8v8h-8zM258 90h8v8h-8zM258 98h8v8h-8zM258 106h8v8h-8zM258 178h8v8h-8zM258 210h8v8h-8zM258 226h8v8h-8zM258 234h8v8h-8zM258 242h8v8h-8zM258 250h8v8h-8zM258 258h8v8h-8zM258 266h8v8h-8zM266 66h8v8h-8zM266 138h8v8h-8zM266 146h8v8h-8zM266 162h8v8h-8zM266 178h8v8h-8zM266 194h8v8h-8zM266 210h8v8h-8zM266 242h8v8h-8zM266 258h8v8h-8zM266 274h8v8h-8zM266 282h8v8h-8zM274 66h8v8h-8zM274 82h8v8h-8zM274 90h8v8h-8zM274 98h8v8h-8zM274 106h8v8h-8zM274 146h8v8h-8zM274 154h8v8h-8zM274 162h8v8h-8zM274 186h8v8h-8zM274 194h8v8h-8zM274 202h8v8h-8zM274 210h8v8h-8zM274 218h8v8h-8zM274 226h8v8h-8zM274 242h8v8h-8zM274 250h8v8h-8zM274 258h8v8h-8zM274 282h8v8h-8zM282 66h8v8h-8zM282 74h8v8h-8zM282 82h8v8h-8zM282 98h8v8h-8zM282 106h8v8h-8zM282 114h8v8h-8zM282 130h8v8h-8zM282 138h8v8h-8zM282 162h8v8h-8zM282 202h8v8h-8zM282 250h8v8h-8zM282 258h8v8h-8zM282 266h8v8h-8zM282 274h8v8h-8zM290 82h8v8h-8zM290 98h8v8h-8zM290 122h8v8h-8zM290 138h8v8h-8zM290 146h8v8h-8zM290 154h8v8h-8zM290 178h8v8h-8zM290 186h8v8h-8zM290 194h8v8h-8zM290 202h8v8h-8zM290 210h8v8h-8zM290 234h8v8h-8zM290 250h8v8h-8zM290 258h8v8h-8zM290 266h8v8h-8zM290 274h8v8h-8zM290 282h8v8h-8zM290 290h8v8h-8z"/><path clip-rule="evenodd" d="M2 2v56h56V2zm8 8h40v40H10z"/><path d="M18 18h8v8h-8zM18 26h8v8h-8zM18 34h8v8h-8zM26 18h8v8h-8zM26 26h8v8h-8zM26 34h8v8h-8zM34 18h8v8h-8zM34 26h8v8h-8zM34 34h8v8h-8z"/><path clip-rule="evenodd" d="M242 2v56h56V2zm8 8h40v40h-40z" transform="rotate(90 270 30)"/><path d="M258 18h8v8h-8zM258 26h8v8h-8zM258 34h8v8h-8zM266 18h8v8h-8zM266 26h8v8h-8zM266 34h8v8h-8zM274 18h8v8h-8zM274 26h8v8h-8zM274 34h8v8h-8z"/><path clip-rule="evenodd" d="M2 242v56h56v-56zm8 8h40v40H10z" transform="rotate(-90 30 270)"/><path d="M18 258h8v8h-8zM18 266h8v8h-8zM18 274h8v8h-8zM26 258h8v8h-8zM26 266h8v8h-8zM26 274h8v8h-8zM34 258h8v8h-8zM34 266h8v8h-8zM34 274h8v8h-8z"/></clipPath></defs><path clip-path="url('#clip-path-background-color')" fill="#fff" d="M0 0h300v300H0z"/><path clip-path="url('#a')" d="M0 0h300v300H0z"/></svg>